<svg width="237" height="58" viewBox="0 0 237 58" fill="none" xmlns="http://www.w3.org/2000/svg">
<g filter="url(#filter0_d_1_2)">
<path d="M27.424 3.56C28.4907 3.56 29.3653 3.77333 30.048 4.2C30.7733 4.584 31.3707 5.11733 31.84 5.8C32.3093 6.44 32.6933 7.18666 32.992 8.04C33.2907 8.89333 33.5467 9.768 33.76 10.664C35.4667 17.576 36.8747 23.272 37.984 27.752C39.0933 32.232 39.968 35.8587 40.608 38.632C41.248 41.3627 41.696 43.3893 41.952 44.712C42.208 46.0347 42.336 46.952 42.336 47.464C42.336 48.0613 42.1867 48.4667 41.888 48.68C41.632 48.8933 41.2053 49 40.608 49H37.344C35.5093 49 34.0373 48.7867 32.928 48.36C31.8613 47.8907 31.0293 47.2293 30.432 46.376C29.8773 45.5227 29.472 44.4987 29.216 43.304C28.96 42.0667 28.7467 40.68 28.576 39.144H17.44L15.328 47.976C15.1147 48.6587 14.624 49 13.856 49H10.464C9.78133 49 9.07733 48.936 8.352 48.808C7.62667 48.6373 6.96533 48.3813 6.368 48.04C5.81333 47.6987 5.344 47.272 4.96 46.76C4.576 46.2053 4.384 45.544 4.384 44.776C4.384 43.8373 4.68267 42.3013 5.28 40.168C5.87733 38.0347 6.624 35.624 7.52 32.936C8.45867 30.2053 9.48267 27.368 10.592 24.424C11.744 21.4373 12.8533 18.6213 13.92 15.976C14.9867 13.3307 15.9467 11.0053 16.8 9C17.696 6.99466 18.3787 5.58666 18.848 4.776C19.1893 4.17866 19.488 3.83733 19.744 3.752C20.0427 3.624 20.576 3.56 21.344 3.56H27.424ZM19.744 29.864H27.104L24.416 12.968L19.744 29.864ZM59.4675 40.872C59.9795 39.08 60.4488 37.3093 60.8755 35.56C61.3448 33.8107 61.7928 31.9547 62.2195 29.992C62.6888 27.9867 63.1795 25.8107 63.6915 23.464C64.2462 21.0747 64.8862 18.3653 65.6115 15.336C65.7395 14.7387 65.9315 14.3547 66.1875 14.184C66.4435 13.9707 66.9982 13.864 67.8515 13.864C68.4915 13.864 69.3448 13.8853 70.4115 13.928C71.4782 13.9707 72.5235 14.12 73.5475 14.376C74.5715 14.632 75.4462 15.016 76.1715 15.528C76.9395 16.04 77.3235 16.744 77.3235 17.64C77.3235 18.3653 77.0675 19.5387 76.5555 21.16C76.0435 22.7813 75.3822 24.6373 74.5715 26.728C73.7608 28.776 72.8435 30.9307 71.8195 33.192C70.8382 35.4533 69.8782 37.5867 68.9395 39.592C68.0008 41.5973 67.1262 43.368 66.3155 44.904C65.5048 46.3973 64.9075 47.4427 64.5235 48.04C64.1822 48.5093 63.8835 48.7867 63.6275 48.872C63.3715 48.9573 62.9448 49 62.3475 49H56.6515C55.7555 49 55.0088 48.8507 54.4115 48.552C53.8568 48.2107 53.3875 47.784 53.0035 47.272C52.6195 46.76 52.2995 46.184 52.0435 45.544C51.7875 44.8613 51.5528 44.1573 51.3395 43.432C50.1022 39.1653 49.0142 35.5173 48.0755 32.488C47.1795 29.416 46.4115 26.856 45.7715 24.808C45.1315 22.76 44.6195 21.1387 44.2355 19.944C43.8515 18.7067 43.5528 17.768 43.3395 17.128C43.1262 16.4453 42.9768 15.9973 42.8915 15.784C42.8062 15.528 42.7635 15.3573 42.7635 15.272C42.8062 14.9733 43.0195 14.6533 43.4035 14.312C43.7875 13.9707 44.2782 13.8 44.8755 13.8C46.8382 13.8 48.5022 13.8853 49.8675 14.056C51.2755 14.184 52.4275 14.44 53.3235 14.824C54.2622 15.208 54.9662 15.7413 55.4355 16.424C55.9475 17.1067 56.3102 18.0027 56.5235 19.112C56.5662 19.4107 56.6515 20.008 56.7795 20.904C56.9075 21.8 57.0355 22.888 57.1635 24.168C57.3342 25.4053 57.5262 26.792 57.7395 28.328C57.9528 29.8213 58.1448 31.336 58.3155 32.872C58.5288 34.3653 58.7208 35.816 58.8915 37.224C59.1048 38.632 59.2968 39.848 59.4675 40.872ZM87.216 49C85.8933 49 84.8053 48.872 83.952 48.616C83.1413 48.3173 82.48 47.912 81.968 47.4C81.4987 46.888 81.1573 46.2693 80.944 45.544C80.7733 44.776 80.688 43.9013 80.688 42.92C80.688 42.28 80.7093 41.384 80.752 40.232C80.8373 39.0373 80.9653 37.416 81.136 35.368C81.3067 33.2773 81.4987 30.6533 81.712 27.496C81.968 24.296 82.2667 20.3493 82.608 15.656C82.6507 14.7173 82.7573 14.1627 82.928 13.992C83.056 13.864 83.3973 13.8 83.952 13.8H86.448C87.7707 13.8 88.8373 13.928 89.648 14.184C90.5013 14.44 91.1627 14.824 91.632 15.336C92.144 15.848 92.4853 16.4667 92.656 17.192C92.8693 17.9173 92.976 18.728 92.976 19.624C92.976 20.264 92.9333 21.224 92.848 22.504C92.7627 23.784 92.6347 25.5333 92.464 27.752C92.336 29.928 92.144 32.6587 91.888 35.944C91.632 39.1867 91.312 43.112 90.928 47.72C90.8853 48.232 90.7787 48.5733 90.608 48.744C90.4373 48.9147 90.0747 49 89.52 49H87.216ZM82.672 6.248C82.672 4.54133 83.2907 3.19733 84.528 2.216C85.7653 1.23467 87.4293 0.743999 89.52 0.743999C91.3547 0.743999 92.6773 1.128 93.488 1.896C94.3413 2.62133 94.768 3.60266 94.768 4.84C94.768 6.41866 94.1707 7.74133 92.976 8.808C91.824 9.832 90.1173 10.344 87.856 10.344C84.4 10.344 82.672 8.97866 82.672 6.248ZM112.96 49.64C110.016 49.64 107.563 49.2347 105.6 48.424C103.68 47.5707 102.144 46.4187 100.992 44.968C99.84 43.5173 99.0293 41.832 98.56 39.912C98.0907 37.9493 97.856 35.8587 97.856 33.64C97.856 31.08 98.1547 28.584 98.752 26.152C99.392 23.6773 100.459 21.48 101.952 19.56C103.445 17.64 105.408 16.104 107.84 14.952C110.315 13.7573 113.387 13.16 117.056 13.16C122.432 13.16 126.272 14.4827 128.576 17.128C130.923 19.7307 132.096 23.4 132.096 28.136C132.096 29.4587 131.989 30.9307 131.776 32.552C131.605 34.1307 131.243 35.7093 130.688 37.288C130.176 38.8667 129.451 40.4027 128.512 41.896C127.616 43.3893 126.464 44.712 125.056 45.864C123.648 47.016 121.941 47.9333 119.936 48.616C117.973 49.2987 115.648 49.64 112.96 49.64ZM115.968 21.672C114.347 21.672 113.045 22.0987 112.064 22.952C111.125 23.7627 110.4 24.7653 109.888 25.96C109.419 27.112 109.099 28.3493 108.928 29.672C108.8 30.952 108.736 32.04 108.736 32.936C108.736 35.752 109.184 37.8213 110.08 39.144C110.976 40.4667 112.256 41.128 113.92 41.128C115.413 41.128 116.629 40.6587 117.568 39.72C118.549 38.7813 119.296 37.6507 119.808 36.328C120.363 35.0053 120.725 33.6187 120.896 32.168C121.109 30.7173 121.216 29.5013 121.216 28.52C121.216 26.3867 120.811 24.7227 120 23.528C119.232 22.2907 117.888 21.672 115.968 21.672ZM158.698 43.368C158.698 42.4293 158.762 41.2133 158.89 39.72C159.061 38.184 159.21 36.584 159.338 34.92C159.509 33.2133 159.658 31.5707 159.786 29.992C159.957 28.4133 160.042 27.0907 160.042 26.024C160.042 24.9147 159.765 23.9333 159.21 23.08C158.698 22.184 157.674 21.736 156.138 21.736C154.645 21.736 153.407 22.0987 152.426 22.824C151.445 23.5493 150.613 24.872 149.93 26.792C149.29 28.712 148.757 31.3573 148.33 34.728C147.903 38.0987 147.498 42.4293 147.114 47.72C147.071 48.232 146.965 48.5733 146.794 48.744C146.623 48.9147 146.261 49 145.706 49H143.402C142.079 49 140.991 48.872 140.138 48.616C139.327 48.3173 138.666 47.912 138.154 47.4C137.685 46.888 137.343 46.2693 137.13 45.544C136.959 44.776 136.874 43.9013 136.874 42.92C136.874 42.28 136.895 41.384 136.938 40.232C137.023 39.0373 137.151 37.416 137.322 35.368C137.493 33.2773 137.685 30.6533 137.898 27.496C138.154 24.296 138.453 20.3493 138.794 15.656C138.837 14.7173 138.943 14.1627 139.114 13.992C139.242 13.864 139.583 13.8 140.138 13.8H142.634C143.914 13.8 144.959 13.9493 145.77 14.248C146.623 14.5467 147.306 14.952 147.818 15.464C148.33 15.9333 148.693 16.5093 148.906 17.192C149.119 17.832 149.247 18.4933 149.29 19.176C150.613 16.9147 152.127 15.3573 153.834 14.504C155.541 13.608 157.674 13.16 160.234 13.16C162.026 13.16 163.583 13.352 164.906 13.736C166.229 14.12 167.317 14.7813 168.17 15.72C169.066 16.616 169.727 17.8107 170.154 19.304C170.581 20.7547 170.794 22.568 170.794 24.744C170.794 25.4267 170.751 26.408 170.666 27.688C170.581 28.968 170.474 30.376 170.346 31.912C170.218 33.4053 170.069 34.984 169.898 36.648C169.77 38.2693 169.642 39.784 169.514 41.192C169.386 42.6 169.279 43.8373 169.194 44.904C169.109 45.9707 169.066 46.6747 169.066 47.016C169.066 47.9547 168.959 48.5307 168.746 48.744C168.533 48.9147 168.063 49 167.338 49H165.29C163.925 49 162.815 48.872 161.962 48.616C161.109 48.36 160.447 47.9973 159.978 47.528C159.509 47.0587 159.167 46.4827 158.954 45.8C158.783 45.0747 158.698 44.264 158.698 43.368ZM183.091 49C181.768 49 180.68 48.872 179.827 48.616C179.016 48.3173 178.355 47.912 177.843 47.4C177.374 46.888 177.032 46.2693 176.819 45.544C176.648 44.776 176.563 43.9013 176.563 42.92C176.563 42.28 176.584 41.384 176.627 40.232C176.712 39.0373 176.84 37.416 177.011 35.368C177.182 33.2773 177.374 30.6533 177.587 27.496C177.843 24.296 178.142 20.3493 178.483 15.656C178.526 14.7173 178.632 14.1627 178.803 13.992C178.931 13.864 179.272 13.8 179.827 13.8H182.323C183.646 13.8 184.712 13.928 185.523 14.184C186.376 14.44 187.038 14.824 187.507 15.336C188.019 15.848 188.36 16.4667 188.531 17.192C188.744 17.9173 188.851 18.728 188.851 19.624C188.851 20.264 188.808 21.224 188.723 22.504C188.638 23.784 188.51 25.5333 188.339 27.752C188.211 29.928 188.019 32.6587 187.763 35.944C187.507 39.1867 187.187 43.112 186.803 47.72C186.76 48.232 186.654 48.5733 186.483 48.744C186.312 48.9147 185.95 49 185.395 49H183.091ZM178.547 6.248C178.547 4.54133 179.166 3.19733 180.403 2.216C181.64 1.23467 183.304 0.743999 185.395 0.743999C187.23 0.743999 188.552 1.128 189.363 1.896C190.216 2.62133 190.643 3.60266 190.643 4.84C190.643 6.41866 190.046 7.74133 188.851 8.808C187.699 9.832 185.992 10.344 183.731 10.344C180.275 10.344 178.547 8.97866 178.547 6.248ZM230.531 47.656C230.531 48.2533 230.168 48.6373 229.443 48.808C228.76 48.9787 227.779 49.064 226.499 49.064C224.878 49.064 223.491 48.9787 222.339 48.808C221.187 48.6373 220.206 48.3813 219.395 48.04C218.627 47.6987 217.987 47.2933 217.475 46.824C216.963 46.312 216.558 45.7147 216.259 45.032L210.883 33.832C209.39 36.136 207.918 38.4613 206.467 40.808C205.016 43.112 203.438 45.5653 201.731 48.168C201.646 48.296 201.326 48.5733 200.771 49C200.259 49.4267 199.704 49.64 199.107 49.64C198.51 49.64 197.827 49.32 197.059 48.68C196.334 47.9973 195.651 47.208 195.011 46.312C194.371 45.3733 193.838 44.392 193.411 43.368C192.984 42.3013 192.771 41.384 192.771 40.616C192.771 39.72 193.24 38.6533 194.179 37.416C195.118 36.136 196.291 34.8347 197.699 33.512C199.107 32.1467 200.622 30.824 202.243 29.544C203.907 28.264 205.464 27.1333 206.915 26.152C205.166 23.1653 203.523 20.4133 201.987 17.896C200.451 15.336 199.128 13.096 198.019 11.176C196.91 9.256 196.035 7.72 195.395 6.568C194.755 5.416 194.435 4.73333 194.435 4.52C194.435 4.30666 194.798 4.09333 195.523 3.88C196.248 3.66666 197.294 3.56 198.659 3.56C200.323 3.56 201.774 3.66666 203.011 3.88C204.291 4.09333 205.379 4.456 206.275 4.968C207.214 5.48 208.024 6.16266 208.707 7.016C209.39 7.86933 210.008 8.91466 210.563 10.152L214.083 18.152C214.979 17 215.768 15.912 216.451 14.888C217.134 13.864 217.838 12.7973 218.563 11.688C219.288 10.5787 220.078 9.384 220.931 8.104C221.784 6.824 222.787 5.352 223.939 3.688C224.323 3.176 224.856 2.92 225.539 2.92C226.307 2.92 227.075 3.28267 227.843 4.008C228.654 4.69066 229.379 5.52266 230.019 6.504C230.659 7.44267 231.171 8.424 231.555 9.448C231.982 10.4293 232.195 11.2187 232.195 11.816C232.195 12.6267 231.683 13.6507 230.659 14.888C229.678 16.1253 228.462 17.4053 227.011 18.728C225.56 20.0507 224.024 21.352 222.403 22.632C220.782 23.8693 219.352 24.8933 218.115 25.704C218.627 26.728 219.288 27.9227 220.099 29.288C220.91 30.6107 221.763 32.0187 222.659 33.512C223.598 34.9627 224.536 36.4347 225.475 37.928C226.414 39.3787 227.246 40.744 227.971 42.024C228.739 43.304 229.358 44.456 229.827 45.48C230.296 46.4613 230.531 47.1867 230.531 47.656Z" fill="url(#paint0_linear_1_2)"/>
</g>
<defs>
<filter id="filter0_d_1_2" x="0.384" y="0.744003" width="235.811" height="56.896" filterUnits="userSpaceOnUse" color-interpolation-filters="sRGB">
<feFlood flood-opacity="0" result="BackgroundImageFix"/>
<feColorMatrix in="SourceAlpha" type="matrix" values="0 0 0 0 0 0 0 0 0 0 0 0 0 0 0 0 0 0 127 0" result="hardAlpha"/>
<feOffset dy="4"/>
<feGaussianBlur stdDeviation="2"/>
<feComposite in2="hardAlpha" operator="out"/>
<feColorMatrix type="matrix" values="0 0 0 0 0 0 0 0 0 0 0 0 0 0 0 0 0 0 0.25 0"/>
<feBlend mode="normal" in2="BackgroundImageFix" result="effect1_dropShadow_1_2"/>
<feBlend mode="normal" in="SourceGraphic" in2="effect1_dropShadow_1_2" result="shape"/>
</filter>
<linearGradient id="paint0_linear_1_2" x1="4" y1="23.5" x2="233" y2="23.5" gradientUnits="userSpaceOnUse">
<stop stop-color="white"/>
<stop offset="1" stop-color="#00E701"/>
</linearGradient>
</defs>
</svg>
